<svg width="30" height="30" viewBox="0 0 30 30" fill="none" xmlns="http://www.w3.org/2000/svg">
<g clip-path="url(#clip0_0_872)">
<path d="M15 17.5C17.0711 17.5 18.75 15.8211 18.75 13.75C18.75 11.6789 17.0711 10 15 10C12.9289 10 11.25 11.6789 11.25 13.75C11.25 15.8211 12.9289 17.5 15 17.5Z" stroke="white" stroke-width="1.25" stroke-linecap="round" stroke-linejoin="round"/>
<path d="M22.0712 20.8213L16.7675 26.125C16.2987 26.5933 15.6632 26.8563 15.0006 26.8563C14.338 26.8563 13.7025 26.5933 13.2337 26.125L7.92875 20.8213C6.53027 19.4227 5.57792 17.6409 5.19211 15.7011C4.8063 13.7613 5.00436 11.7506 5.76125 9.92341C6.51814 8.09618 7.79987 6.53443 9.44435 5.43563C11.0888 4.33684 13.0222 3.75037 15 3.75037C16.9778 3.75037 18.9112 4.33684 20.5556 5.43563C22.2001 6.53443 23.4819 8.09618 24.2387 9.92341C24.9956 11.7506 25.1937 13.7613 24.8079 15.7011C24.4221 17.6409 23.4697 19.4227 22.0712 20.8213Z" stroke="white" stroke-width="1.25" stroke-linecap="round" stroke-linejoin="round"/>
</g>
<defs>
<clipPath id="clip0_0_872">
<rect width="30" height="30" fill="white"/>
</clipPath>
</defs>
</svg>
