<svg width="46" height="46" viewBox="0 0 46 46" fill="none" xmlns="http://www.w3.org/2000/svg">
<g opacity="0.4" clip-path="url(#clip0_1_1534)">
<path d="M27.8605 35.7949C30.2493 37.3334 32.5997 38.8334 34.9246 40.3334C36.2787 41.2052 36.7897 42.641 36.2787 44.0257C35.5889 45.8975 33.3662 46.5898 31.6927 45.4103C29.4189 43.8205 27.1579 42.1923 24.8969 40.5769C24.3731 40.2052 23.8494 39.8462 23.3384 39.4616C23.0829 39.2693 22.9168 39.2949 22.6741 39.4744C19.9405 41.4359 17.194 43.3975 14.4348 45.3334C12.7997 46.4872 10.7047 45.9744 9.88714 44.2436C9.22288 42.8462 9.68275 41.2564 11.024 40.3846C12.9657 39.1154 14.9202 37.8718 16.8619 36.6282C17.2706 36.359 17.6922 36.0898 18.1393 35.8077C17.9988 35.6923 17.8838 35.6026 17.7688 35.5257C15.5078 33.9103 13.234 32.3077 10.9857 30.6795C10.7175 30.4872 10.5258 30.4744 10.2193 30.6154C5.19899 32.9231 -0.0512152 28.718 -0.000118285 24.077C0.0254302 21.3975 1.94156 19.1026 4.61138 18.577C8.26481 17.859 12.1226 20.2308 13.0679 23.8205C13.2595 24.5385 13.2595 25.3077 13.3106 26.0513C13.3234 26.3205 13.3745 26.4872 13.6044 26.6411C16.6447 28.5898 19.685 30.5385 22.7125 32.5C22.9296 32.641 23.0829 32.641 23.3129 32.5C26.3403 30.5385 29.3806 28.5898 32.4209 26.6411C32.6636 26.4872 32.7147 26.3205 32.7019 26.0513C32.4847 21.2949 36.5214 18.4616 40.0343 18.4616C44.4542 18.4487 47.1879 22.5257 45.5145 26.6282C44.1221 30.0257 39.8938 32.5641 35.7039 30.5769C35.5761 30.5128 35.3589 30.5 35.2312 30.5769C34.8991 30.7693 34.6053 31.0128 34.2859 31.2308C32.1526 32.7308 30.0321 34.2436 27.8605 35.7949ZM5.9399 20C3.25731 20 1.30285 22 1.55834 24.577C1.92879 28.1667 6.18261 31.1667 9.92546 29C10.4875 28.6795 10.8835 28.718 11.3945 29.0769C15.9293 32.3205 20.4642 35.5513 25.0118 38.7821C27.4772 40.5385 29.9554 42.3077 32.4336 44.0641C33.1362 44.5641 33.9027 44.5385 34.4392 44.0128C35.1929 43.2821 35.0013 42.2052 34.0049 41.5641C26.8385 36.9487 19.6722 32.3334 12.4803 27.7564C11.8288 27.3462 11.535 26.8975 11.7649 26.1539C11.8033 26.0257 11.7905 25.8718 11.8033 25.718C11.8544 22.6026 9.18455 20 5.9399 20ZM24.437 33.5898C25.0118 33.9616 25.5483 34.2693 26.0465 34.6411C26.3659 34.8718 26.5703 34.8334 26.8769 34.6154C29.4956 32.7308 32.1271 30.8718 34.7586 28.9872C35.1418 28.718 35.4867 28.6411 35.8955 28.8975C39.3701 31.0257 43.049 28.718 44.1348 25.8975C45.1185 23.3205 43.8666 20.8077 41.2734 20.1282C38.0799 19.3077 33.6472 22.0128 34.3115 26.3718C34.4009 26.9359 34.2348 27.2949 33.7366 27.6026C31.1435 29.2436 28.5758 30.9103 25.9954 32.5769C25.4845 32.9103 24.9735 33.2436 24.437 33.5898ZM21.6777 38.2949C20.9879 37.8077 20.3237 37.3205 19.6594 36.8718C19.57 36.8077 19.3528 36.8462 19.2506 36.9231C16.7597 38.5128 14.2815 40.1154 11.8033 41.7051C11.4073 41.9616 11.1646 42.3334 11.139 42.8077C11.0879 43.3975 11.3178 43.8846 11.8288 44.1795C12.4037 44.5257 12.9913 44.4744 13.5406 44.0898C14.8946 43.1282 16.2487 42.1667 17.6028 41.2051C18.9313 40.2564 20.2854 39.2949 21.6777 38.2949Z" fill="white"/>
<path d="M31.399 26.2947C30.888 26.1922 30.4282 26.0896 29.93 25.987C30.0705 25.2691 30.1982 24.5768 30.3388 23.8588C25.4462 23.8588 20.5792 23.8588 15.6867 23.8588C15.8145 24.564 15.955 25.2563 16.0955 25.9999C15.5973 26.1024 15.1246 26.1922 14.6009 26.2947C14.3326 24.9614 14.0772 23.6794 13.8217 22.3973C13.3746 20.1794 12.9275 17.9742 12.5059 15.7563C12.4421 15.4486 12.3399 15.3332 12.0333 15.2819C8.39262 14.7435 5.78668 11.4101 6.15713 7.8332C6.55314 4.03833 9.77224 1.28192 13.5406 1.55115C14.767 1.64089 15.9039 2.03833 16.9258 2.74345C17.0408 2.82038 17.1557 2.91012 17.2835 2.98704C20.0938 -0.987315 25.8933 -1.00014 28.7292 2.98704C29.5723 2.37166 30.492 1.91012 31.514 1.69217C35.2696 0.858839 39.0635 3.3332 39.7661 7.07679C40.507 11.0255 37.9266 14.7178 34.0177 15.2819C33.6856 15.3332 33.5834 15.4614 33.5195 15.7819C32.868 19.1153 32.2038 22.4358 31.5395 25.7563C31.5012 25.9229 31.4501 26.0768 31.399 26.2947ZM15.3546 22.2691C16.3637 22.2691 17.3218 22.2691 18.2799 22.2691C18.0627 20.7691 17.8583 19.2947 17.6539 17.8076C18.1777 17.7306 18.6631 17.6665 19.1613 17.5896C19.3912 19.1922 19.6212 20.7306 19.8383 22.2819C20.6559 22.2819 21.4351 22.2819 22.2527 22.2819C22.2527 19.4614 22.2527 16.6665 22.2527 13.8717C22.7764 13.8717 23.2491 13.8717 23.7728 13.8717C23.7728 16.6922 23.7728 19.487 23.7728 22.2819C24.6031 22.2819 25.3696 22.2819 26.1616 22.2819C26.3915 20.7178 26.6087 19.1665 26.8386 17.5768C27.3624 17.6537 27.8478 17.7306 28.346 17.8076C28.1288 19.3204 27.9244 20.7947 27.72 22.2819C28.7036 22.2819 29.6617 22.2819 30.6326 22.2819C30.6709 22.0896 30.722 21.9101 30.7603 21.7178C31.2202 19.3973 31.68 17.0768 32.1527 14.7563C32.306 13.987 32.4593 13.8717 33.2385 13.8332C35.9466 13.705 38.1949 11.4614 38.3226 8.75628C38.4248 6.49987 37.1985 4.47422 35.1674 3.55115C33.1619 2.64089 30.8753 3.05115 29.2274 4.61525C28.5887 5.21781 28.1544 5.14089 27.72 4.38448C26.6725 2.53833 25.0885 1.56397 22.9936 1.56397C20.9114 1.56397 19.3401 2.55115 18.3054 4.37166C17.8583 5.15371 17.4368 5.21781 16.7597 4.60243C15.329 3.2691 13.6556 2.7691 11.765 3.24345C9.23572 3.85884 7.57507 6.12807 7.69004 8.74346C7.79224 11.2563 9.6956 13.3973 12.2377 13.7563C13.8472 13.987 13.6556 13.7819 14.0133 15.5383C14.4604 17.7819 14.8947 20.0255 15.3546 22.2691Z" fill="white"/>
<path d="M44.7222 30.3843C45.0671 30.7561 45.3864 31.1022 45.7441 31.4997C44.7861 32.3971 43.7258 33.0766 42.5378 33.5638C40.4556 34.4227 38.3095 34.5509 36.1124 34.0381C35.9207 33.9868 35.6397 34.0381 35.4736 34.1535C34.5284 34.7945 33.5958 35.474 32.6378 36.1535C32.344 35.7304 32.0629 35.3458 31.7563 34.9227C32.0374 34.7176 32.2929 34.5125 32.5611 34.3202C33.3914 33.7304 34.209 33.115 35.0649 32.5638C35.2948 32.4099 35.678 32.3202 35.9463 32.3971C39.1654 33.3202 42.0268 32.6792 44.5561 30.5125C44.5944 30.4612 44.6455 30.4356 44.7222 30.3843Z" fill="white"/>
<path d="M5.04595 11.2821C4.59885 11.436 4.15175 11.6027 3.70465 11.7565C2.24839 8.42317 3.21923 2.92317 7.53692 0.141113C7.80518 0.538549 8.07344 0.948806 8.35447 1.35906C5.05872 3.92317 3.93459 7.1924 5.04595 11.2821Z" fill="white"/>
<path d="M5.5438 15.0769C5.1478 14.5256 4.79012 14.0256 4.38135 13.4743C4.84122 13.2051 5.25 12.9615 5.69709 12.7051C6.02922 13.1538 6.34858 13.6025 6.68071 14.0641C6.32303 14.3846 5.96535 14.7051 5.5438 15.0769Z" fill="white"/>
</g>
<defs>
<clipPath id="clip0_1_1534">
<rect width="46" height="46" fill="white"/>
</clipPath>
</defs>
</svg>
