<svg width="24" height="24" viewBox="0 0 24 24" fill="none" xmlns="http://www.w3.org/2000/svg">
<path d="M18.5524 12.7238C18.5524 16.381 21.7524 17.5238 21.7524 17.6C21.7524 17.6762 21.2191 19.2762 20.0763 20.9524C19.0858 22.4762 18.0953 23.9238 16.4191 23.9238C14.8191 23.9238 14.2858 23.0095 12.4572 23.0095C10.6286 23.0095 10.0953 23.9238 8.57149 23.9238C6.97149 24 5.75244 22.4 4.76196 20.9524C2.70482 17.981 1.10482 12.4952 3.23815 8.8381C4.30482 7.00952 6.20958 5.86667 8.19054 5.86667C9.79054 5.79048 11.2382 6.85714 12.1524 6.85714C13.0667 6.85714 14.8953 5.6381 16.7239 5.79048C17.562 5.79048 19.6953 6.09524 21.1429 8.15238C20.9905 8.22857 18.4762 9.67619 18.5524 12.7238ZM15.5048 3.80952C16.3429 2.81905 16.9524 1.37143 16.8001 0C15.581 0.0761905 14.1334 0.838095 13.2191 1.82857C12.7854 2.32801 12.4544 2.90813 12.2452 3.53569C12.036 4.16324 11.9527 4.82591 12.0001 5.48571C13.2953 5.6381 14.6667 4.8 15.5048 3.80952Z" fill="black"/>
</svg>
