<svg width="122" height="96" viewBox="0 0 122 96" fill="none" xmlns="http://www.w3.org/2000/svg">
<path fill-rule="evenodd" clip-rule="evenodd" d="M69.8274 23.0475C70.002 23.2217 70.1406 23.4286 70.2351 23.6564C70.3296 23.8842 70.3783 24.1284 70.3783 24.375C70.3783 24.6216 70.3296 24.8658 70.2351 25.0936C70.1406 25.3214 70.002 25.5283 69.8274 25.7025L58.5774 36.9525C58.4033 37.1271 58.1963 37.2656 57.9686 37.3602C57.7408 37.4547 57.4966 37.5033 57.2499 37.5033C57.0033 37.5033 56.7591 37.4547 56.5313 37.3602C56.3035 37.2656 56.0966 37.1271 55.9224 36.9525L50.2974 31.3275C50.1231 31.1532 49.9848 30.9462 49.8905 30.7184C49.7961 30.4907 49.7476 30.2465 49.7476 30C49.7476 29.7535 49.7961 29.5093 49.8905 29.2816C49.9848 29.0538 50.1231 28.8468 50.2974 28.6725C50.4718 28.4982 50.6787 28.3599 50.9065 28.2655C51.1343 28.1712 51.3784 28.1226 51.6249 28.1226C51.8715 28.1226 52.1156 28.1712 52.3434 28.2655C52.5711 28.3599 52.7781 28.4982 52.9524 28.6725L57.2499 32.9737L67.1724 23.0475C67.3466 22.8729 67.5535 22.7343 67.7813 22.6398C68.0091 22.5453 68.2533 22.4966 68.4999 22.4966C68.7466 22.4966 68.9908 22.5453 69.2185 22.6398C69.4463 22.7343 69.6533 22.8729 69.8274 23.0475Z" fill="#333333"/>
<path d="M47.5225 12.5325C51.2706 9.30051 56.0509 7.51552 61 7.5C71.0875 7.5 79.4613 15 80.3725 24.6712C86.3425 25.515 91 30.5137 91 36.6487C91 43.3838 85.3825 48.75 78.5763 48.75H45.1788C37.405 48.75 31 42.6225 31 34.9425C31 28.3312 35.7475 22.8562 42.0325 21.4688C42.5687 18.2325 44.65 15.0075 47.5225 12.5325ZM49.9713 15.3713C47.1325 17.82 45.6475 20.7713 45.6475 23.0813V24.7613L43.9788 24.945C38.74 25.5187 34.75 29.82 34.75 34.9425C34.75 40.4437 39.3625 45 45.1788 45H78.5763C83.425 45 87.25 41.205 87.25 36.6487C87.25 32.0887 83.425 28.2938 78.5763 28.2938H76.7013V26.4188C76.705 18.0938 69.73 11.25 61 11.25C56.9495 11.2662 53.0382 12.7291 49.9713 15.375V15.3713Z" fill="#884CB2"/>
<path d="M6.608 72.48H0.112V69.4H16.744V72.48H10.248V89H6.608V72.48ZM24.3285 89.196C22.8165 89.196 21.4538 88.8693 20.2405 88.216C19.0272 87.5627 18.0752 86.6573 17.3845 85.5C16.7125 84.324 16.3765 82.9987 16.3765 81.524C16.3765 80.0493 16.7125 78.7333 17.3845 77.576C18.0752 76.4187 19.0272 75.5133 20.2405 74.86C21.4538 74.2067 22.8165 73.88 24.3285 73.88C25.8592 73.88 27.2312 74.2067 28.4445 74.86C29.6578 75.5133 30.6005 76.4187 31.2725 77.576C31.9632 78.7333 32.3085 80.0493 32.3085 81.524C32.3085 82.9987 31.9632 84.324 31.2725 85.5C30.6005 86.6573 29.6578 87.5627 28.4445 88.216C27.2312 88.8693 25.8592 89.196 24.3285 89.196ZM24.3285 86.2C25.6165 86.2 26.6805 85.7707 27.5205 84.912C28.3605 84.0533 28.7805 82.924 28.7805 81.524C28.7805 80.124 28.3605 78.9947 27.5205 78.136C26.6805 77.2773 25.6165 76.848 24.3285 76.848C23.0405 76.848 21.9765 77.2773 21.1365 78.136C20.3152 78.9947 19.9045 80.124 19.9045 81.524C19.9045 82.924 20.3152 84.0533 21.1365 84.912C21.9765 85.7707 23.0405 86.2 24.3285 86.2ZM50.2994 68.224V89H46.9394V87.068C46.3607 87.7773 45.642 88.3093 44.7834 88.664C43.9434 89.0187 43.01 89.196 41.9834 89.196C40.546 89.196 39.2487 88.8787 38.0914 88.244C36.9527 87.6093 36.0567 86.7133 35.4034 85.556C34.75 84.38 34.4234 83.036 34.4234 81.524C34.4234 80.012 34.75 78.6773 35.4034 77.52C36.0567 76.3627 36.9527 75.4667 38.0914 74.832C39.2487 74.1973 40.546 73.88 41.9834 73.88C42.9727 73.88 43.878 74.048 44.6994 74.384C45.5207 74.72 46.2207 75.224 46.7994 75.896V68.224H50.2994ZM42.4034 86.2C43.2434 86.2 43.9994 86.0133 44.6714 85.64C45.3434 85.248 45.8754 84.6973 46.2674 83.988C46.6594 83.2787 46.8554 82.4573 46.8554 81.524C46.8554 80.5907 46.6594 79.7693 46.2674 79.06C45.8754 78.3507 45.3434 77.8093 44.6714 77.436C43.9994 77.044 43.2434 76.848 42.4034 76.848C41.5634 76.848 40.8074 77.044 40.1354 77.436C39.4634 77.8093 38.9314 78.3507 38.5394 79.06C38.1474 79.7693 37.9514 80.5907 37.9514 81.524C37.9514 82.4573 38.1474 83.2787 38.5394 83.988C38.9314 84.6973 39.4634 85.248 40.1354 85.64C40.8074 86.0133 41.5634 86.2 42.4034 86.2ZM61.598 89.196C60.086 89.196 58.7234 88.8693 57.51 88.216C56.2967 87.5627 55.3447 86.6573 54.654 85.5C53.982 84.324 53.646 82.9987 53.646 81.524C53.646 80.0493 53.982 78.7333 54.654 77.576C55.3447 76.4187 56.2967 75.5133 57.51 74.86C58.7234 74.2067 60.086 73.88 61.598 73.88C63.1287 73.88 64.5007 74.2067 65.714 74.86C66.9274 75.5133 67.87 76.4187 68.542 77.576C69.2327 78.7333 69.578 80.0493 69.578 81.524C69.578 82.9987 69.2327 84.324 68.542 85.5C67.87 86.6573 66.9274 87.5627 65.714 88.216C64.5007 88.8693 63.1287 89.196 61.598 89.196ZM61.598 86.2C62.886 86.2 63.95 85.7707 64.79 84.912C65.63 84.0533 66.05 82.924 66.05 81.524C66.05 80.124 65.63 78.9947 64.79 78.136C63.95 77.2773 62.886 76.848 61.598 76.848C60.31 76.848 59.246 77.2773 58.406 78.136C57.5847 78.9947 57.174 80.124 57.174 81.524C57.174 82.924 57.5847 84.0533 58.406 84.912C59.246 85.7707 60.31 86.2 61.598 86.2Z" fill="#884CB2"/>
<path d="M73.2609 69.4H76.9009V85.92H87.1489V89H73.2609V69.4ZM89.6866 74.048H93.1866V89H89.6866V74.048ZM91.4506 71.584C90.816 71.584 90.284 71.388 89.8546 70.996C89.4253 70.5853 89.2106 70.0813 89.2106 69.484C89.2106 68.8867 89.4253 68.392 89.8546 68C90.284 67.5893 90.816 67.384 91.4506 67.384C92.0853 67.384 92.6173 67.58 93.0466 67.972C93.476 68.3453 93.6906 68.8213 93.6906 69.4C93.6906 70.016 93.476 70.5387 93.0466 70.968C92.636 71.3787 92.104 71.584 91.4506 71.584ZM102.4 89.196C101.187 89.196 100.002 89.0373 98.8444 88.72C97.687 88.4027 96.763 88.0013 96.0724 87.516L97.4164 84.856C98.0884 85.304 98.891 85.668 99.8244 85.948C100.776 86.2093 101.71 86.34 102.624 86.34C104.715 86.34 105.76 85.7893 105.76 84.688C105.76 84.1653 105.49 83.8013 104.948 83.596C104.426 83.3907 103.576 83.1947 102.4 83.008C101.168 82.8213 100.16 82.6067 99.3764 82.364C98.611 82.1213 97.939 81.7013 97.3604 81.104C96.8004 80.488 96.5204 79.6387 96.5204 78.556C96.5204 77.1373 97.1084 76.008 98.2844 75.168C99.479 74.3093 101.084 73.88 103.1 73.88C104.127 73.88 105.154 74.0013 106.18 74.244C107.207 74.468 108.047 74.776 108.7 75.168L107.356 77.828C106.087 77.0813 104.659 76.708 103.072 76.708C102.046 76.708 101.262 76.8667 100.72 77.184C100.198 77.4827 99.9364 77.884 99.9364 78.388C99.9364 78.948 100.216 79.3493 100.776 79.592C101.355 79.816 102.242 80.0307 103.436 80.236C104.631 80.4227 105.611 80.6373 106.376 80.88C107.142 81.1227 107.795 81.5333 108.336 82.112C108.896 82.6907 109.176 83.512 109.176 84.576C109.176 85.976 108.57 87.096 107.356 87.936C106.143 88.776 104.491 89.196 102.4 89.196ZM121.179 88.188C120.768 88.524 120.264 88.776 119.667 88.944C119.088 89.112 118.472 89.196 117.819 89.196C116.176 89.196 114.907 88.7667 114.011 87.908C113.115 87.0493 112.667 85.7987 112.667 84.156V76.96H110.203V74.16H112.667V70.744H116.167V74.16H120.171V76.96H116.167V84.072C116.167 84.8 116.344 85.36 116.699 85.752C117.053 86.1253 117.567 86.312 118.239 86.312C119.023 86.312 119.676 86.1067 120.199 85.696L121.179 88.188Z" fill="#333333"/>
</svg>
