<svg width="24" height="24" viewBox="0 0 24 24" fill="none" xmlns="http://www.w3.org/2000/svg">
<path d="M13.4121 20.5C13.2045 21.0804 12.6487 21.5 12 21.5C11.3445 21.5 10.7924 21.0811 10.5869 20.5H13.4121ZM12 3C12.5539 3 13 3.44614 13 4V5.0752L13.3848 5.16602C15.9684 5.78045 17.5 8.10493 17.5 11V16.207L19.5 18.207V18.5H4.5V18.207L6.5 16.207V11C6.5 8.09442 8.02223 5.78143 10.6152 5.16699L11 5.0752V4C11 3.44614 11.4461 3 12 3Z" stroke="#C2CFE0"/>
<circle cx="17" cy="6" r="4.5" fill="#F7685B" stroke="white"/>
</svg>
