<svg width="50" height="50" viewBox="0 0 50 50" fill="none" xmlns="http://www.w3.org/2000/svg">
<circle cx="25" cy="25" r="25" fill="black"/>
<circle cx="25" cy="25.0009" r="18.5185" fill="white"/>
<path d="M18.9164 30.8256C19.8485 32 21.5835 32 25.0533 32H25.6137C29.0835 32 30.8185 32 31.7506 30.8256M18.9164 30.8256C17.9842 29.6511 18.3039 27.8681 18.9434 24.3021C19.3981 21.7662 19.6255 20.4982 20.4887 19.7491M18.9164 30.8256C18.9164 30.8256 18.9164 30.8256 18.9164 30.8256ZM31.7506 30.8256C32.6828 29.6511 32.3631 27.8681 31.7236 24.3021C31.2689 21.7662 31.0415 20.4982 30.1783 19.7491M31.7506 30.8256C31.7506 30.8256 31.7506 30.8256 31.7506 30.8256ZM30.1783 19.7491C29.315 19 28.0813 19 25.6137 19H25.0533C22.5857 19 21.3519 19 20.4887 19.7491M30.1783 19.7491C30.1783 19.7491 30.1783 19.7491 30.1783 19.7491ZM20.4887 19.7491C20.4887 19.7491 20.4887 19.7491 20.4887 19.7491Z" stroke="black" stroke-width="1.5"/>
<path d="M23.3335 22C23.6246 23.1652 24.4101 24 25.3335 24C26.2568 24 27.0424 23.1652 27.3335 22" stroke="black" stroke-width="1.5" stroke-linecap="round"/>
</svg>
